<?xml version="1.0" standalone="no"?>
<!DOCTYPE svg PUBLIC "-//W3C//DTD SVG 20010904//EN"
 "http://www.w3.org/TR/2001/REC-SVG-20010904/DTD/svg10.dtd">
<svg version="1.0" xmlns="http://www.w3.org/2000/svg"
 width="906.000000pt" height="641.000000pt" viewBox="0 0 906.000000 641.000000"
 preserveAspectRatio="xMidYMid meet">

<g transform="translate(0.000000,641.000000) scale(0.100000,-0.100000)"
fill="#000000" stroke="none">
<path d="M4365 6276 c-217 -36 -380 -115 -533 -260 -85 -81 -130 -139 -186
-244 l-41 -77 -555 -6 c-584 -5 -565 -4 -696 -52 -280 -103 -504 -349 -577
-635 l-22 -87 0 -1945 0 -1945 22 -88 c56 -217 209 -441 402 -588 93 -70 248
-144 366 -174 l99 -25 1830 2 c2066 4 1865 -5 2054 84 130 61 213 119 309 216
148 148 245 325 289 524 17 74 18 197 15 2019 -1 1246 -6 1961 -12 1999 -51
298 -297 577 -589 669 -61 20 -94 21 -577 25 l-512 3 -29 64 c-81 172 -236
327 -417 417 -193 96 -442 137 -640 104z m361 -316 c136 -34 297 -131 398
-239 l30 -31 -622 0 c-713 0 -658 -10 -533 96 215 179 466 240 727 174z m1702
-648 c190 -68 339 -229 400 -430 16 -53 17 -177 20 -1687 2 -896 0 -1648 -3
-1670 -6 -40 -7 -41 -153 -123 -81 -46 -154 -88 -162 -93 -16 -11 -101 21
-305 116 -129 60 -216 95 -238 95 -11 0 -87 -27 -170 -61 -82 -33 -184 -73
-226 -89 -42 -16 -106 -40 -142 -54 l-66 -25 -99 56 c-149 83 -407 238 -518
310 -54 36 -104 67 -111 69 -8 3 -80 -101 -182 -263 -251 -395 -401 -623 -412
-623 -5 0 -53 69 -107 153 -53 83 -126 194 -161 245 -72 103 -59 99 -151 41
-25 -16 -49 -29 -53 -29 -3 0 -16 28 -29 63 -12 34 -63 148 -112 252 -117 246
-205 437 -280 605 -60 136 -77 165 -84 144 -4 -10 -225 -412 -304 -551 -32
-58 -45 -73 -64 -73 -12 0 -90 14 -172 30 -82 17 -230 44 -329 61 -99 17 -184
35 -190 40 -5 5 -9 358 -10 920 l0 910 632 627 c438 435 640 642 660 677 36
65 40 170 7 225 -19 33 -24 35 -90 43 -38 4 -238 6 -444 4 -398 -4 -447 -9
-525 -56 -62 -37 -34 0 43 56 75 54 155 89 232 103 25 4 898 7 1940 6 l1895
-1 63 -23z"/>
<path d="M5023 4373 l-122 -4 -202 -204 c-111 -113 -206 -205 -210 -205 -4 0
-99 92 -210 205 l-202 205 -154 0 c-144 0 -153 -1 -153 -19 0 -23 53 -84 254
-291 83 -85 216 -221 294 -303 97 -99 151 -147 165 -147 16 0 121 99 362 343
187 188 346 355 354 370 17 32 1 58 -33 55 -11 -1 -76 -4 -143 -5z"/>
<path d="M2669 3500 c-43 -13 -77 -40 -108 -87 -55 -82 -51 -166 12 -260 42
-64 110 -107 216 -139 47 -14 196 -61 331 -104 135 -43 297 -94 360 -113 367
-112 342 -102 371 -149 14 -24 91 -155 170 -292 84 -145 164 -271 193 -303 62
-68 131 -104 213 -111 83 -6 142 11 213 64 65 48 95 90 203 284 238 428 227
412 277 425 73 19 378 111 630 190 129 41 271 84 315 96 119 33 175 61 224
110 102 102 108 228 17 336 -35 42 -118 68 -190 60 -54 -6 -326 -88 -801 -242
-280 -90 -431 -137 -487 -149 -32 -7 -59 -54 -320 -543 -22 -40 -43 -75 -47
-78 -5 -3 -73 115 -152 262 -194 365 -174 338 -261 363 -40 12 -215 66 -388
120 -173 54 -391 122 -485 151 -93 28 -219 67 -278 86 -106 32 -175 40 -228
23z"/>
</g>
</svg>
